<svg width="831" height="726" xmlns="http://www.w3.org/2000/svg" xmlns:xlink="http://www.w3.org/1999/xlink" xml:space="preserve" overflow="hidden"><defs><filter id="fx0" x="-10%" y="-10%" width="120%" height="120%" filterUnits="userSpaceOnUse" primitiveUnits="userSpaceOnUse"><feComponentTransfer color-interpolation-filters="sRGB"><feFuncR type="discrete" tableValues="0 0"/><feFuncG type="discrete" tableValues="0 0"/><feFuncB type="discrete" tableValues="0 0"/><feFuncA type="linear" slope="0.4" intercept="0"/></feComponentTransfer><feGaussianBlur stdDeviation="6.11111 6.11111"/></filter><clipPath id="clip1"><rect x="1166" y="533" width="831" height="726"/></clipPath></defs><g clip-path="url(#clip1)" transform="translate(-1166 -533)"><g filter="url(#fx0)" transform="translate(1165 532)"><g><path d="M19.7227 54.8797C19.7227 35.4631 35.4629 19.7228 54.8795 19.7228L777.566 19.7228C796.982 19.7228 812.723 35.4631 812.723 54.8797L812.723 672.566C812.723 691.982 796.982 707.723 777.566 707.723L54.8795 707.723C35.4629 707.723 19.7227 691.982 19.7227 672.566Z" fill="#FFFFFF" fill-rule="evenodd"/></g></g><path d="M1175 577.157C1175 557.74 1190.74 542 1210.16 542L1932.84 542C1952.26 542 1968 557.74 1968 577.157L1968 1194.84C1968 1214.26 1952.26 1230 1932.84 1230L1210.16 1230C1190.74 1230 1175 1214.26 1175 1194.84Z" fill="#FFFFFF" fill-rule="evenodd"/></g></svg>